<svg id="Capa_1" enable-background="new 0 0 511.925 511.925" height="512" viewBox="0 0 511.925 511.925" width="512" xmlns="http://www.w3.org/2000/svg"><g><g><g><path d="m368.279 504.429h-224.632c-14.211 0-25.732-11.52-25.732-25.732v-445.469c0-14.211 11.52-25.732 25.732-25.732h224.632c14.211 0 25.732 11.52 25.732 25.732v445.469c-.001 14.211-11.521 25.732-25.732 25.732z" fill="#eaf6ff"/></g><g><path d="m394.014 33.227v445.472c0 14.208-11.524 25.732-25.732 25.732h-19.024c14.208 0 25.732-11.524 25.732-25.732v-445.472c0-14.208-11.524-25.732-25.732-25.732h19.024c14.207 0 25.732 11.524 25.732 25.732z" fill="#d8ecfe"/></g><g><path d="m195.43 7.496 8.009 27.204c.973 3.305 4.006 5.574 7.452 5.574h90.145c3.445 0 6.479-2.269 7.452-5.574l8.009-27.204z" fill="#465a61"/></g><g><path d="m316.498 7.495-8.01 27.204c-.971 3.304-4.005 5.577-7.449 5.577h-23.799c3.444 0 6.478-2.273 7.449-5.577l8.01-27.204z" fill="#35474c"/></g></g><g><g><g><path d="m170.958 401.577h-15.018c-4.816 0-8.72-3.904-8.72-8.72v-47.354c0-4.816 3.904-8.72 8.72-8.72h15.018c4.816 0 8.72 3.904 8.72 8.72v47.354c0 4.816-3.904 8.72-8.72 8.72z" fill="#8d9ca8"/></g><g><path d="m232.635 401.577h-15.018c-4.816 0-8.72-3.904-8.72-8.72v-90.947c0-4.816 3.904-8.72 8.72-8.72h15.018c4.816 0 8.72 3.904 8.72 8.72v90.946c0 4.817-3.904 8.721-8.72 8.721z" fill="#8d9ca8"/></g><g><path d="m294.312 401.577h-15.018c-4.816 0-8.72-3.904-8.72-8.72v-112.147c0-4.816 3.904-8.72 8.72-8.72h15.018c4.816 0 8.72 3.904 8.72 8.72v112.147c0 4.816-3.904 8.72-8.72 8.72z" fill="#8d9ca8"/></g><g><path d="m355.989 401.577h-15.018c-4.816 0-8.72-3.904-8.72-8.72v-152.181c0-4.816 3.904-8.72 8.72-8.72h15.018c4.816 0 8.72 3.904 8.72 8.72v152.181c-.001 4.816-3.905 8.72-8.72 8.72z" fill="#8d9ca8"/></g></g><g><g><path d="m179.678 345.501v47.353c0 4.817-3.908 8.725-8.725 8.725h-15.011c-.31 0-.63-.02-.929-.05 4.377-.46 7.786-4.168 7.786-8.675v-47.353c0-4.507-3.408-8.205-7.786-8.665.3-.03.62-.05.929-.05h15.011c4.817 0 8.725 3.898 8.725 8.715z" fill="#7a8c98"/></g><g><path d="m241.353 301.906v90.948c0 4.817-3.898 8.725-8.715 8.725h-15.021c-.31 0-.63-.02-.93-.05 4.378-.46 7.796-4.168 7.796-8.675v-90.948c0-4.497-3.418-8.205-7.796-8.665.3-.03.62-.05.93-.05h15.021c4.817 0 8.715 3.908 8.715 8.715z" fill="#7a8c98"/></g><g><path d="m303.027 280.708v112.146c0 4.817-3.898 8.725-8.715 8.725h-15.021c-.31 0-.63-.02-.93-.05 4.378-.46 7.796-4.168 7.796-8.675v-112.146c0-4.507-3.418-8.205-7.796-8.665.3-.03.62-.05.93-.05h15.021c4.818 0 8.715 3.898 8.715 8.715z" fill="#7a8c98"/></g><g><path d="m364.712 240.671v152.183c0 4.817-3.908 8.725-8.725 8.725h-15.011c-.31 0-.63-.02-.93-.05 4.367-.47 7.785-4.178 7.785-8.675v-152.183c0-4.497-3.418-8.195-7.785-8.665.3-.03.62-.05.93-.05h15.011c4.817.001 8.725 3.908 8.725 8.715z" fill="#7a8c98"/></g></g><g><circle cx="255.964" cy="193.1" fill="#fd9468" r="50.051"/></g><g><path d="m306.016 193.099c0 27.644-22.407 50.051-50.051 50.051-16.021 0-30.283-7.526-39.447-19.239 6.766 3.418 14.412 5.337 22.497 5.337 27.644 0 50.051-22.407 50.051-50.051 0-11.623-3.958-22.327-10.614-30.822 16.35 8.235 27.564 25.165 27.564 44.724z" fill="#fe7d43"/></g><g><path d="m368.279 0h-224.632c-18.323 0-33.228 14.906-33.228 33.228v445.469c0 18.323 14.906 33.228 33.228 33.228h224.632c18.322 0 33.227-14.906 33.227-33.228v-445.469c0-18.322-14.906-33.228-33.227-33.228zm-61.804 14.991-5.179 17.591c-.034.115-.141.195-.262.195h-90.145c-.12 0-.227-.08-.262-.195l-5.179-17.591zm80.039 463.706c0 10.056-8.181 18.237-18.236 18.237h-224.631c-10.056 0-18.237-8.181-18.237-18.237v-445.469c0-10.056 8.181-18.237 18.237-18.237h46.176l6.426 21.825c1.898 6.448 7.919 10.953 14.642 10.953h90.145c6.723 0 12.744-4.504 14.642-10.953l6.426-21.825h46.176c10.055 0 18.236 8.181 18.236 18.237v445.469z"/><path d="m170.958 329.288h-15.018c-8.941 0-16.215 7.274-16.215 16.215v47.354c0 8.942 7.274 16.216 16.215 16.216h15.018c8.942 0 16.216-7.274 16.216-16.216v-47.354c0-8.941-7.274-16.215-16.216-16.215zm1.224 63.568c0 .675-.55 1.225-1.225 1.225h-15.017c-.674 0-1.224-.55-1.224-1.225v-47.354c0-.674.55-1.224 1.224-1.224h15.018c.675 0 1.225.55 1.225 1.224v47.354z"/><path d="m232.635 285.694h-15.018c-8.941 0-16.215 7.274-16.215 16.216v90.946c0 8.942 7.274 16.216 16.215 16.216h15.018c8.941 0 16.215-7.274 16.215-16.216v-90.946c0-8.941-7.274-16.216-16.215-16.216zm1.224 107.162c0 .675-.55 1.225-1.224 1.225h-15.018c-.674 0-1.224-.55-1.224-1.225v-90.946c0-.675.55-1.225 1.224-1.225h15.018c.674 0 1.224.55 1.224 1.225z"/><path d="m294.312 264.495h-15.018c-8.941 0-16.215 7.274-16.215 16.215v112.146c0 8.942 7.274 16.216 16.215 16.216h15.018c8.941 0 16.215-7.274 16.215-16.216v-112.146c0-8.941-7.274-16.215-16.215-16.215zm1.223 128.361c0 .675-.55 1.225-1.224 1.225h-15.018c-.674 0-1.224-.55-1.224-1.225v-112.146c0-.675.55-1.224 1.224-1.224h15.018c.674 0 1.224.55 1.224 1.224z"/><path d="m355.989 224.461h-15.018c-8.942 0-16.216 7.274-16.216 16.215v152.18c0 8.942 7.274 16.216 16.216 16.216h15.018c8.941 0 16.215-7.274 16.215-16.216v-33.836c0-4.14-3.355-7.496-7.496-7.496-4.14 0-7.496 3.355-7.496 7.496v33.837c0 .675-.55 1.225-1.224 1.225h-15.018c-.675 0-1.225-.55-1.225-1.225v-152.18c0-.674.55-1.224 1.225-1.224h15.018c.674 0 1.224.55 1.224 1.224v83.294c0 4.14 3.355 7.496 7.496 7.496 4.14 0 7.496-3.355 7.496-7.496v-83.294c0-8.942-7.274-16.216-16.215-16.216z"/><path d="m255.964 135.554c-10.371 0-20.54 2.791-29.408 8.073-3.557 2.118-4.723 6.719-2.604 10.275 2.118 3.557 6.719 4.722 10.275 2.604 6.548-3.9 14.065-5.961 21.737-5.961 23.465 0 42.555 19.09 42.555 42.555s-19.09 42.556-42.555 42.556-42.554-19.091-42.554-42.556c0-4.72.765-9.353 2.275-13.771 1.339-3.917-.752-8.178-4.668-9.517-3.917-1.34-8.179.751-9.517 4.668-2.045 5.982-3.081 12.246-3.081 18.619 0 31.732 25.815 57.547 57.546 57.547s57.546-25.815 57.546-57.547c-.001-31.73-25.816-57.545-57.547-57.545z"/><path d="m238.738 212.63c1.424 1.253 3.191 1.869 4.949 1.869 2.079 0 4.148-.86 5.63-2.543l6.608-7.509 6.608 7.509c1.482 1.684 3.55 2.543 5.63 2.543 1.759 0 3.525-.616 4.949-1.869 3.107-2.735 3.41-7.471.674-10.579l-7.877-8.95 7.877-8.95c2.736-3.108 2.433-7.844-.674-10.579-3.108-2.736-7.844-2.434-10.579.674l-6.608 7.509-6.608-7.509c-2.736-3.107-7.471-3.41-10.579-.674-3.108 2.735-3.41 7.471-.674 10.579l7.877 8.95-7.877 8.95c-2.736 3.108-2.434 7.844.674 10.579z"/></g></g></g></svg>